<?xml version="1.0" encoding="UTF-8" standalone="no"?>
<!-- Created with Inkscape (http://www.inkscape.org/) -->

<svg
   width="6.4634581cm"
   height="4.1681719cm"
   viewBox="0 0 244.28819 157.53721"
   version="1.1"
   id="svg5"
   xmlns:xlink="http://www.w3.org/1999/xlink"
   xmlns="http://www.w3.org/2000/svg"
   xmlns:svg="http://www.w3.org/2000/svg">
  <defs
     id="defs2">
    <linearGradient
       id="linearGradient13315">
      <stop
         style="stop-color:#fdce2d;stop-opacity:1"
         offset="0"
         id="stop13311" />
      <stop
         style="stop-color:#af7b2f;stop-opacity:1"
         offset="1"
         id="stop13313" />
    </linearGradient>
    <linearGradient
       xlink:href="#linearGradient13315"
       id="linearGradient13317"
       x1="891.23956"
       y1="223.18204"
       x2="891.23956"
       y2="564.08276"
       gradientUnits="userSpaceOnUse"
       gradientTransform="matrix(0.42134691,0,0,0.42134691,-44.649088,174.70145)" />
  </defs>
  <g
     id="layer1"
     transform="translate(-249.15142,-260.55637)">
    <path
       style="fill:url(#linearGradient13317);fill-opacity:1;stroke-width:0.421347"
       d="m 297.7446,417.63599 c -2.12106,-0.65747 -3.03602,-2.66133 -2.8,-6.13228 0.059,-0.86731 2.59115,-4.9739 3.6015,-5.8408 0.27009,-0.23174 3.13914,-3.62738 6.37566,-7.54586 5.74511,-6.95562 9.63517,-11.57311 13.69862,-16.26024 1.10498,-1.27458 2.73776,-3.20011 3.6284,-4.27896 0.89063,-1.07885 3.42059,-4.03594 5.62213,-6.57131 2.20154,-2.53537 5.51964,-6.39247 7.37357,-8.57134 1.85393,-2.17886 3.87071,-4.53074 4.48174,-5.2264 0.61103,-0.69565 3.25385,-3.72971 5.87294,-6.74234 2.61909,-3.01263 5.46915,-6.23593 6.33348,-7.1629 2.11855,-2.27209 3.32582,-3.84194 3.32582,-4.32467 0,-0.71733 -5.3774,-7.44712 -10.0479,-12.5749 -1.07827,-1.18383 -3.12437,-3.55391 -4.54689,-5.26684 -1.42253,-1.71292 -3.65006,-4.34684 -4.95007,-5.85316 -1.30001,-1.50631 -4.56135,-5.44064 -7.24742,-8.74295 -2.68607,-3.3023 -5.10389,-5.99937 -5.37293,-5.99349 -0.80649,0.0177 -5.39461,7.04122 -7.69615,11.78141 -2.95506,6.08617 -5.20526,13.83598 -5.99632,20.6516 -0.64767,5.58033 -0.56511,15.86264 0.149,18.55494 0.57623,2.17247 0.55833,2.42814 -0.3188,4.55268 l -0.92932,2.25095 -1.6535,-0.2644 c -1.51263,-0.24188 -2.77506,-0.68776 -7.63952,-2.69823 -1.41865,-0.58633 -5.29031,-3.03203 -9.90165,-6.25481 -8.06556,-5.63687 -18.14817,-16.21833 -24.58852,-25.80506 -2.66465,-3.96644 -8.6101,-15.68135 -10.06413,-19.83035 -2.34701,-6.69709 -4.66145,-16.33464 -5.21111,-21.69959 -0.34865,-3.4031 0.18917,-4.15968 3.48054,-4.89626 2.12763,-0.47614 2.36444,-0.44831 3.42851,0.40297 6.97259,5.57823 14.86146,9.34579 22.60883,10.79752 5.16025,0.96694 10.56523,1.31593 12.09754,0.7714 1.53232,-0.54453 8.51017,-3.08595 10.67808,-4.43298 5.3938,-3.35142 6.83508,-4.42944 9.46175,-7.07704 3.07222,-3.0967 6.09295,-7.47735 8.99967,-13.05128 l 1.86767,-3.58145 9.00674,-0.13099 c 10.63948,-0.15474 13.12047,0.20458 14.06833,2.03756 0.34462,0.66642 0.62659,1.63637 0.62659,2.15543 0,1.53727 -2.59948,6.29876 -4.56091,8.35425 -2.77364,2.90665 -4.76467,6.28455 -4.26005,7.22743 0.41675,0.77871 4.53398,5.88137 5.05844,6.26915 0.15671,0.11587 2.31659,2.58075 4.79974,5.47751 2.48315,2.89676 5.62164,6.49928 6.97442,8.00559 3.96949,4.42001 10.52762,12.10603 10.52762,12.33819 0,0.11771 1.52952,1.83285 3.39892,3.81142 3.34739,3.54287 3.41191,3.5857 4.25561,2.82499 2.285,-2.06023 4.26207,-4.20465 6.02228,-6.53203 0.87101,-1.15164 1.82996,-2.28928 2.13101,-2.52808 0.30101,-0.2388 1.94005,-2.04583 3.64225,-4.01563 2.97471,-3.44237 4.07762,-4.67414 9.21983,-10.29702 1.28464,-1.40474 2.88959,-3.30575 3.56649,-4.22449 0.67693,-0.91873 1.52936,-1.96903 1.89433,-2.33399 1.47977,-1.47978 8.42534,-9.63616 8.42534,-9.89413 0,-0.15256 -0.8531,-1.1784 -1.89573,-2.27963 -5.41009,-5.71408 -8.02783,-10.31093 -7.67264,-13.47355 0.11381,-1.01357 0.46462,-2.00776 0.77953,-2.20933 0.31492,-0.20156 5.87312,-0.32032 12.35158,-0.26389 l 11.779,0.10258 0.32857,1.58212 c 0.71494,3.44283 5.50675,10.62904 10.04285,15.06109 4.85109,4.73984 8.57575,7.05629 15.07579,9.37599 3.40983,1.21687 4.07105,1.30926 9.562,1.33607 6.41324,0.0313 9.68546,-0.62518 16.01119,-3.21227 3.18799,-1.30383 9.60498,-5.00972 13.18019,-7.6117 l 2.22522,-1.61947 1.92665,0.9622 c 3.43895,1.7175 3.70292,2.94745 2.24506,10.46016 -1.3261,6.83372 -4.41255,16.47399 -6.74083,21.05443 -0.18034,0.35471 -1.1231,2.25658 -2.09507,4.22638 -4.79151,9.71048 -10.81976,18.00345 -19.15738,26.35451 -5.86649,5.87592 -7.90733,7.60294 -14.0769,11.91208 -3.14691,2.19798 -12.72004,7.23888 -13.74729,7.23888 -0.28677,0 -1.41968,-0.50208 -2.51763,-1.11572 -1.97443,-1.10354 -1.99343,-1.13461 -1.7378,-2.8441 1.15563,-7.72814 1.27824,-19.76018 0.24948,-24.4811 -0.202,-0.92696 -0.47836,-2.34901 -0.61412,-3.1601 -0.90606,-5.41341 -3.47227,-12.06462 -6.74656,-17.4859 -0.55984,-0.92696 -1.25802,-2.1594 -1.55153,-2.73875 -1.52367,-3.00758 -3.94675,-6.32021 -4.62306,-6.32021 -0.18383,0 -1.14564,1.09024 -2.13732,2.42275 -1.53324,2.06015 -8.47506,10.4072 -12.17688,14.6418 -3.47628,3.9766 -6.73684,7.80969 -8.5927,10.1015 -1.16052,1.43314 -2.44322,2.9389 -2.85045,3.34614 -0.40724,0.40724 -1.19827,1.34024 -1.75782,2.07333 -0.55959,0.7331 -1.88397,2.23687 -2.94307,3.34171 -2.03527,2.12315 -2.36232,3.2138 -1.24238,4.14328 0.37584,0.3119 2.11878,2.27858 3.87323,4.3704 1.75445,2.09183 3.95923,4.66052 4.89955,5.70822 0.94032,1.04769 2.65769,3.02339 3.81639,4.39044 1.1587,1.36705 2.94066,3.44874 3.95995,4.62598 1.01923,1.17724 2.82049,3.2584 4.00279,4.62481 1.18226,1.36641 3.00572,3.45207 4.05209,4.63482 1.04642,1.18274 2.937,3.38287 4.20134,4.88919 2.92196,3.48125 3.68333,4.36696 5.9763,6.95222 3.82351,4.31096 9.61922,11.14527 9.61922,11.343 0,0.11251 0.83258,1.11407 1.85018,2.22569 1.01764,1.11163 2.56427,2.96918 3.43701,4.12788 0.87278,1.15871 1.73081,2.20294 1.90676,2.32053 0.17592,0.11758 0.91205,0.97081 1.6358,1.89606 1.57811,2.01748 3.45597,4.26823 5.61693,6.73237 l 1.5956,1.81946 c 0,0 -0.0379,2.8742 -0.62587,4.14001 -0.57981,1.24836 -2.72156,3.10555 -2.72156,3.10555 h -22.47553 c -24.94694,0 -23.75268,0.13471 -24.98659,-2.81839 -0.34424,-0.8239 -0.62587,-2.42014 -0.62587,-3.54721 0,-1.9842 0.10551,-2.15967 3.32582,-5.53139 3.65308,-3.82485 6.36516,-6.98796 6.36516,-7.4238 0,-0.15425 -0.42986,-0.75253 -0.95523,-1.32952 -0.52534,-0.57698 -1.3953,-1.61787 -1.93319,-2.3131 -0.53793,-0.69522 -1.90933,-2.26523 -3.0476,-3.48891 -1.13827,-1.22368 -2.06957,-2.39292 -2.06957,-2.59831 0,-0.20539 -0.1631,-0.43663 -0.36249,-0.51388 -0.19933,-0.0772 -1.47623,-1.46769 -2.83751,-3.08988 -1.36133,-1.62218 -3.07887,-3.61305 -3.81686,-4.42414 -0.73795,-0.81109 -2.63696,-3.01479 -4.22,-4.89712 -11.82544,-14.06103 -15.17339,-17.85561 -15.75395,-17.85561 -0.18185,0 -2.00456,1.92718 -4.05048,4.28262 -2.04592,2.35544 -4.76268,5.44501 -6.03726,6.86572 -2.29013,2.55269 -8.97715,10.29022 -12.36678,14.30954 -1.69426,2.00902 -3.37704,3.91781 -9.12191,10.34709 -1.50631,1.68577 -2.88802,3.32134 -3.07044,3.63462 -0.37972,0.65205 0.54712,2.67007 1.63892,3.56848 1.9869,1.63495 6.93284,8.18393 7.34962,9.73174 0.59381,2.20527 -0.19721,4.78425 -1.84051,6.00054 -1.16692,0.86371 -1.5981,0.88161 -22.96341,0.95315 -12.46621,0.0418 -22.3145,-0.0946 -23.0382,-0.31889 z"
       id="path998" />
  </g>
</svg>
